<?xml version="1.0" encoding="utf-8"?>
<!-- Generator: Adobe Illustrator 21.1.0, SVG Export Plug-In . SVG Version: 6.00 Build 0)  -->
<svg version="1.1" id="Слой_1" xmlns="http://www.w3.org/2000/svg" xmlns:xlink="http://www.w3.org/1999/xlink" x="0px" y="0px"
	 viewBox="0 0 88.3 23.9" style="enable-background:new 0 0 88.3 23.9;" xml:space="preserve">
<style type="text/css">
	.st0{fill:#121313;}
</style>
<path id="Arrow_Forward" class="st0" d="M87.7,11.9c0-0.3-0.1-0.5-0.3-0.7l-9.9-10c-0.4-0.4-1-0.4-1.4,0c-0.4,0.4-0.4,1,0,1.4
	l8.2,8.3H2.7c-0.6,0-1,0.5-1,1s0.4,1,1,1h81.6l-8.2,8.3c-0.4,0.4-0.4,1,0,1.4c0.4,0.4,1,0.4,1.4,0l9.9-10
	C87.6,12.4,87.7,12.1,87.7,11.9z"/>
</svg>
