<?xml version="1.0" encoding="UTF-8"?>
<svg width="24px" height="30px" viewBox="0 0 24 30" version="1.1" xmlns="http://www.w3.org/2000/svg" xmlns:xlink="http://www.w3.org/1999/xlink">
    <!-- Generator: Sketch 49 (51002) - http://www.bohemiancoding.com/sketch -->
    <title>delete-button</title>
    <desc>Created with Sketch.</desc>
    <defs></defs>
    <g id="Page-1" stroke="none" stroke-width="1" fill="none" fill-rule="evenodd">
        <g id="search-result-copy-6" transform="translate(-964.000000, -819.000000)" fill="#FFFFFF" fill-rule="nonzero">
            <g id="tick" transform="translate(886.000000, 819.000000)">
                <g id="delete-button" transform="translate(78.000000, 0.000000)">
                    <path d="M20.6095884,3.5942491 L15.9898287,3.5942491 C15.759376,1.57428347 14.0591563,0 11.9999692,0 C9.94084369,0 8.24087009,1.57422128 8.01041733,3.5942491 L3.39041164,3.5942491 C1.52082826,3.5942491 0,5.13196761 0,7.02171719 L0,7.19757726 C0,8.64170686 0.88957472,9.8777644 2.14273081,10.3814033 L2.14273081,26.5725319 C2.14273081,28.4623437 3.66374363,30 5.53320397,30 L18.4668575,30 C20.3363794,30 21.8572692,28.4622193 21.8572692,26.5725319 L21.8572692,10.3814655 C23.1103638,9.8777644 24,8.64170686 24,7.19763945 L24,7.02177937 C24,5.13196761 22.4790487,3.5942491 20.6095884,3.5942491 Z M11.9999692,1.62546199 C13.1711196,1.62546199 14.1486675,2.47398063 14.3649707,3.5942491 L9.63539843,3.5942491 C9.85164014,2.47391844 10.8292495,1.62546199 11.9999692,1.62546199 Z M20.249206,26.5725319 C20.249206,27.5661289 19.44945,28.3746002 18.466796,28.3746002 L5.53314245,28.3746002 C4.55048844,28.3746002 3.75073247,27.5660667 3.75073247,26.5725319 L3.75073247,10.6250453 L20.249206,10.6250453 L20.249206,26.5725319 Z M22.3919368,7.19757726 C22.3919368,8.19117425 21.5921808,8.99964554 20.6095268,8.99964554 L3.39041164,8.99964554 C2.40775763,8.99964554 1.60800166,8.19117425 1.60800166,7.19757726 L1.60800166,7.02171719 C1.60800166,6.0281202 2.40775763,5.2196489 3.39041164,5.2196489 L20.6095884,5.2196489 C21.5922424,5.2196489 22.3919983,6.0281202 22.3919983,7.02171719 L22.3919983,7.19757726 L22.3919368,7.19757726 Z" id="Shape"></path>
                    <path d="M8,26 C8.55229933,26 9,25.628471 9,25.1704868 L9,15.8296401 C9,15.3715925 8.55222282,15 8,15 C7.44777718,15 7,15.3715925 7,15.8296401 L7,25.1704868 C6.99992348,25.628598 7.44770067,26 8,26 Z" id="Shape"></path>
                    <path d="M11.9999617,26 C12.5522399,26 13,25.628471 13,25.1704868 L13,15.8296401 C13,15.3715925 12.5520869,15 11.9999617,15 C11.4477601,15 11,15.3715925 11,15.8296401 L11,25.1704868 C11,25.628598 11.4476835,26 11.9999617,26 Z" id="Shape"></path>
                    <path d="M16.0000765,26 C16.5522993,26 17,25.628471 17,25.1704868 L17,15.8296401 C17,15.3715925 16.5522228,15 16.0000765,15 C15.4477007,15 15,15.3715925 15,15.8296401 L15,25.1704868 C14.9999235,25.628598 15.4478537,26 16.0000765,26 Z" id="Shape"></path>
                </g>
            </g>
        </g>
    </g>
</svg>