<?xml version="1.0" encoding="UTF-8"?>
<svg width="17px" height="13px" viewBox="0 0 17 13" version="1.1" xmlns="http://www.w3.org/2000/svg" xmlns:xlink="http://www.w3.org/1999/xlink">
    <!-- Generator: Sketch 49 (51002) - http://www.bohemiancoding.com/sketch -->
    <title>photo-interface-symbol-with-mountains-and-moon-view-in-a-rectangle</title>
    <desc>Created with Sketch.</desc>
    <defs></defs>
    <g id="Page-1" stroke="none" stroke-width="1" fill="none" fill-rule="evenodd">
        <g id="search-result-copy-6" transform="translate(-1257.000000, -259.000000)" fill="#9B9B9B" fill-rule="nonzero">
            <g id="Group-6" transform="translate(380.000000, 125.000000)">
                <g id="Group-5" transform="translate(538.000000, 125.000000)">
                    <g id="Group-2" transform="translate(316.000000, 0.000000)">
                        <g id="Group-10-Copy">
                            <g id="Group-3">
                                <g id="photo-interface-symbol-with-mountains-and-moon-view-in-a-rectangle" transform="translate(23.000000, 9.000000)">
                                    <path d="M3.13574437,9.63512612 C3.18347852,9.66702019 3.24261818,9.6911452 3.320767,9.6911452 C5.50470992,9.6911452 7.68865283,9.6911452 9.87301816,9.6911452 C10.0571959,9.6911452 10.2502447,9.52267905 10.1725183,9.36361756 C9.67912459,8.35241176 9.15109197,7.3534729 8.58673071,6.37048109 C8.25766078,5.7963877 7.52348422,4.01686176 6.53120533,4.00009692 C5.57609993,3.98414988 4.77855946,5.94072885 4.4862406,6.46289213 C3.955251,7.41235428 3.47199555,8.38512363 3.0212669,9.36361756 C2.96381695,9.48996718 3.02971542,9.58483161 3.13574437,9.63512612 Z" id="Shape"></path>
                                    <path d="M9,6.49163049 C9.46255657,7.318832 9.91159551,8.16525174 10.3297973,9.02312064 C10.3589447,9.08281981 10.3686605,9.14619906 10.3589447,9.20916942 C11.1619768,9.20916942 11.9671209,9.20916942 12.7705753,9.20916942 C12.92983,9.20916942 13.0966883,9.06401048 13.0291001,8.92580281 C12.6700379,8.18855895 12.2843629,7.45949306 11.8729199,6.74146742 C11.6232661,6.3072173 10.8789513,4.95417241 10.3420477,5.00119573 C9.90737125,5.04004108 9.32442324,5.94002651 9,6.49163049 Z" id="Shape"></path>
                                    <path d="M9.17883275,4.28071624 C9.84288658,4.31506371 10.3236075,3.73279235 10.3565567,3.14111633 C10.3206505,2.49669241 9.84457628,2.03586389 9.17883275,2.00151642 C8.51477893,1.96635115 8.03448046,2.54862251 8.00153123,3.14111633 C7.96562501,3.78431355 8.56715977,4.24882216 9.17883275,4.28071624 Z" id="Shape"></path>
                                    <path d="M0,0.000408898425 L0,0.387635707 L0,0.774862516 L0,10.1312763 L0,10.857071 L0,12.253868 L16.1007706,12.253868 L16.1007706,10.5974205 L16.1007706,10.1308674 L16.1007706,0.774862516 L16.1007706,0.127985207 L16.1007706,0 L0,0.000408898425 Z M15.3006956,10.1316852 L0.800919876,10.1316852 L0.800919876,0.774862516 L15.3006956,0.774862516 L15.3006956,10.1316852 Z" id="Shape"></path>
                                </g>
                            </g>
                        </g>
                    </g>
                </g>
            </g>
        </g>
    </g>
</svg>