<?xml version="1.0" encoding="UTF-8"?>
<svg width="223px" height="188px" viewBox="0 0 223 188" version="1.1" xmlns="http://www.w3.org/2000/svg" xmlns:xlink="http://www.w3.org/1999/xlink">
    <!-- Generator: Sketch 49 (51002) - http://www.bohemiancoding.com/sketch -->
    <title>Group 7</title>
    <desc>Created with Sketch.</desc>
    <defs></defs>
    <g id="Page-1" stroke="none" stroke-width="1" fill="none" fill-rule="evenodd">
        <g id="search-result-copy-6" transform="translate(-502.000000, -203.000000)" fill="#DFDFDF" fill-rule="nonzero">
            <g id="Group-6" transform="translate(380.000000, 125.000000)">
                <g id="upload-picture" transform="translate(122.000000, 78.000000)">
                    <g id="Group-7">
                        <polygon id="Shape" points="84.7069787 55 55 107 139 107 120.050158 62.6455504 101.096353 81.5108869"></polygon>
                        <polygon id="Shape" points="204.751986 51.2411067 186.5 32 168.251986 51.2371542 150 70.4782609 172.163693 70.4782609 172.163693 98 200.840279 98 200.840279 70.4782609 223 70.4782609"></polygon>
                        <polygon id="Shape" points="179.039461 133.426136 13.9605393 133.426136 13.9605393 13.9816026 179.039461 13.9816026 179.039461 23.6080847 193 23.6080847 193 0 0 0 0 188 193 188 193 110.0957 179.039461 110.0957"></polygon>
                    </g>
                </g>
            </g>
        </g>
    </g>
</svg>