<?xml version="1.0" encoding="UTF-8"?>
<svg width="85px" height="130px" viewBox="0 0 85 130" version="1.1" xmlns="http://www.w3.org/2000/svg" xmlns:xlink="http://www.w3.org/1999/xlink">
    <!-- Generator: Sketch 49.1 (51147) - http://www.bohemiancoding.com/sketch -->
    <title>android-logo</title>
    <desc>Created with Sketch.</desc>
    <defs></defs>
    <g id="Page-1" stroke="none" stroke-width="1" fill="none" fill-rule="evenodd">
        <g id="streaming-" transform="translate(-1211.000000, -4962.000000)" fill="#56BDFF" fill-rule="nonzero">
            <g id="Group-20" transform="translate(295.000000, 4451.000000)">
                <g id="Group-45" transform="translate(1.000000, 498.000000)">
                    <g id="Group-18-Copy-2" transform="translate(894.000000, 13.000000)">
                        <g id="Group-21">
                            <g id="Group-44">
                                <g id="android-logo" transform="translate(21.000000, 0.000000)">
                                    <path d="M2.09779284e-14,87.8703704 C2.09779284e-14,111.342593 18.8214286,130 42.5,130 C66.1785714,130 85,111.342593 85,87.8703704 L85,63.7962963 L1.42108547e-14,63.7962963 L2.09779284e-14,87.8703704 Z M67.3928571,18.0555556 L80.1428571,5.41666667 L75.2857143,0.601851852 L61.3214286,14.4444444 C55.8571429,11.4351852 49.1785714,9.62962963 42.5,9.62962963 C35.8214286,9.62962963 29.1428571,11.4351852 23.6785714,13.8425926 L9.71428571,0 L4.85714286,5.41666667 L17.6071429,18.0555556 C6.67857143,25.2777778 0,37.9166667 0,51.7592593 L0,57.7777778 L85,57.7777778 L85,51.7592593 C85,37.9166667 78.3214286,25.2777778 67.3928571,18.0555556 Z M24.2857143,45.7407407 C20.6428571,45.7407407 18.2142857,43.3333333 18.2142857,39.7222222 C18.2142857,36.1111111 20.6428571,33.7037037 24.2857143,33.7037037 C27.9285714,33.7037037 30.3571429,36.1111111 30.3571429,39.7222222 C30.3571429,43.3333333 27.9285714,45.7407407 24.2857143,45.7407407 Z M60.7142857,45.7407407 C57.0714286,45.7407407 54.6428571,43.3333333 54.6428571,39.7222222 C54.6428571,36.1111111 57.0714286,33.7037037 60.7142857,33.7037037 C64.3571429,33.7037037 66.7857143,36.1111111 66.7857143,39.7222222 C66.7857143,43.3333333 64.3571429,45.7407407 60.7142857,45.7407407 Z" id="Shape"></path>
                                </g>
                            </g>
                        </g>
                    </g>
                </g>
            </g>
        </g>
    </g>
</svg>