<?xml version="1.0" encoding="UTF-8"?>
<svg width="115px" height="137px" viewBox="0 0 115 137" version="1.1" xmlns="http://www.w3.org/2000/svg" xmlns:xlink="http://www.w3.org/1999/xlink">
    <!-- Generator: Sketch 49.1 (51147) - http://www.bohemiancoding.com/sketch -->
    <title>apple-logo</title>
    <desc>Created with Sketch.</desc>
    <defs></defs>
    <g id="Page-1" stroke="none" stroke-width="1" fill="none" fill-rule="evenodd">
        <g id="streaming-" transform="translate(-848.000000, -4957.000000)" fill="#56BDFF" fill-rule="nonzero">
            <g id="Group-20" transform="translate(295.000000, 4451.000000)">
                <g id="Group-45" transform="translate(1.000000, 498.000000)">
                    <g id="Group-23" transform="translate(447.000000, 8.000000)">
                        <g id="apple-logo" transform="translate(105.000000, 0.000000)">
                            <path d="M101.956646,89.6761934 C98.1585518,84.2450114 96.2608057,78.126068 96.2608057,71.3245517 C96.2608057,65.1248987 98.0518524,59.4449581 101.626428,54.2884771 C103.5528,51.490447 106.690746,48.2542789 111.03882,44.5776667 C108.177309,41.0673741 105.315509,38.3241112 102.451685,36.3484546 C97.2783539,32.7828182 91.4162472,31 84.8673895,31 C80.9605714,31 76.1987121,31.9321963 70.5861491,33.7988949 C65.1921897,35.6641522 61.2564558,36.5977897 58.7809714,36.5977897 C56.9086712,36.5977897 53.1117333,35.7754162 47.3878443,34.1286514 C41.6090152,32.4824631 36.7378541,31.6600895 32.7752284,31.6600895 C23.3087633,31.6600895 15.4933921,35.6108262 9.32940413,43.51057 C3.11018692,51.5210014 0,61.7803491 0,74.2897661 C0,87.5670776 4.04619241,101.36439 12.136264,115.684297 C20.3362157,129.894093 28.6197342,137 36.9853736,137 C39.7922335,137 43.4249295,136.066939 47.882305,134.201682 C52.3411264,132.392633 56.2485228,131.486091 59.6062292,131.486091 C63.1825394,131.486091 67.3386119,132.363808 72.0715554,134.118666 C77.0794884,135.872659 80.9331013,136.750665 83.6295027,136.750665 C90.6739778,136.750665 97.7473687,131.373674 104.846205,120.620556 C109.468401,113.762831 112.853578,106.905106 115,100.046517 C110.101658,98.5640538 105.754452,95.1076636 101.956646,89.6761934 Z" id="Shape"></path>
                            <path d="M73.1386503,25.7474315 C76.5347806,22.3253425 79.0406796,18.5767694 80.6580462,14.5034247 C82.2201982,10.4295091 83,6.73515982 83,3.42123288 C83,3.20462329 82.9883908,2.9326484 82.9592261,2.60644977 C82.9348749,2.28053653 82.9204342,2.0097032 82.9204342,1.79223744 C82.8660689,1.62899543 82.7992449,1.33019406 82.7188296,0.896118721 C82.6384143,0.462043379 82.5713072,0.163242009 82.5160925,0 C73.0307692,2.2283105 66.2942898,6.24771689 62.3058046,12.0602169 C58.2649363,17.9269406 56.1619632,24.9063927 56,33 C59.6110429,32.6738014 62.4122699,32.2128995 64.407362,31.6150114 C67.3198679,30.6369863 70.2267107,28.6806507 73.1386503,25.7474315 Z" id="Shape"></path>
                        </g>
                    </g>
                </g>
            </g>
        </g>
    </g>
</svg>